<svg width="96" height="96" viewBox="0 0 96 96" fill="none" xmlns="http://www.w3.org/2000/svg">
  <defs>
    <linearGradient id="g1" x1="8" y1="8" x2="88" y2="88" gradientUnits="userSpaceOnUse">
      <stop stop-color="#FF7A45"/>
      <stop offset="1" stop-color="#EE4D2D"/>
    </linearGradient>
    <linearGradient id="g2" x1="25" y1="28" x2="71" y2="68" gradientUnits="userSpaceOnUse">
      <stop stop-color="#FFFFFF"/>
      <stop offset="1" stop-color="#FFE7DE"/>
    </linearGradient>
  </defs>
  <rect x="8" y="8" width="80" height="80" rx="22" fill="url(#g1)"/>
  <path d="M48 24C35.3 24 25 34.3 25 47C25 59.7 35.3 70 48 70C60.7 70 71 59.7 71 47V42.5C71 37.8 67.2 34 62.5 34C59.9 34 57.6 35.2 56 37.1C53.8 35.2 51 34 48 34C40.8 34 35 39.8 35 47C35 54.2 40.8 60 48 60C51 60 53.8 58.8 56 56.9C57.6 58.8 59.9 60 62.5 60C67.2 60 71 56.2 71 51.5V47C71 59.7 60.7 70 48 70" fill="url(#g2)"/>
  <circle cx="48" cy="47" r="8.5" fill="#EE4D2D"/>
  <circle cx="62.5" cy="47" r="4.5" fill="#EE4D2D"/>
</svg>
